PathFileType	4	(X/Y/Z)	Kaydara																																																																																																																									
DataRate	CameraRate	NumFrames	NumMarkers	Units	OrigDataRate	OrigDataStartFrame	OrigNumFrames																																																																																																																					
30	30	8	41	mm	30	42	104																																																																																																																					
Frame#	Time	EMLA_LFHD			EMLA_RFHD			EMLA_LBHD			EMLA_RBHD			EMLA_LFTShould			EMLA_RFTShould			EMLA_LRRShould			EMLA_RRRShould			EMLA_T10			EMLA_STRN			EMLA_TRUN			EMLA_LSHO			EMLA_LUPA			EMLA_LELB			EMLA_LFRM			EMLA_LWRA			EMLA_LWRB			EMLA_LFIN			EMLA_RSHO			EMLA_RUPA			EMLA_RELB			EMLA_RFRM			EMLA_RWRA			EMLA_RWRB			EMLA_RFIN			EMLA_LFWT			EMLA_RFWT			EMLA_LBWT			EMLA_RBWT			EMLA_LTHI			EMLA_LKNE			EMLA_LSHN			EMLA_LANK			EMLA_LHEE			EMLA_LTOE			EMLA_RTHI			EMLA_RKNE			EMLA_RSHN			EMLA_RANK			EMLA_RHEE			EMLA_RTOE		
		X1	Y1	Z1	X2	Y2	Z2	X3	Y3	Z3	X4	Y4	Z4	X5	Y5	Z5	X6	Y6	Z6	X7	Y7	Z7	X8	Y8	Z8	X9	Y9	Z9	X10	Y10	Z10	X11	Y11	Z11	X12	Y12	Z12	X13	Y13	Z13	X14	Y14	Z14	X15	Y15	Z15	X16	Y16	Z16	X17	Y17	Z17	X18	Y18	Z18	X19	Y19	Z19	X20	Y20	Z20	X21	Y21	Z21	X22	Y22	Z22	X23	Y23	Z23	X24	Y24	Z24	X25	Y25	Z25	X26	Y26	Z26	X27	Y27	Z27	X28	Y28	Z28	X29	Y29	Z29	X30	Y30	Z30	X31	Y31	Z31	X32	Y32	Z32	X33	Y33	Z33	X34	Y34	Z34	X35	Y35	Z35	X36	Y36	Z36	X37	Y37	Z37	X38	Y38	Z38	X39	Y39	Z39	X40	Y40	Z40	X41	Y41	Z41
																																																																																																																												
27	1.367	275.37371	1627.74551	-1889.68109	106.07489	1620.74799	-1898.07922	296.08408	1631.94839	-2040.06958	101.83977	1627.25082	-2051.04218	282.37131	1403.27255	-1965.06744	131.73001	1395.0032	-1956.49048	269.10873	1449.95621	-2113.40378	111.1937	1442.41058	-2104.66324	199.35328	1275.54291	-2156.56464	207.74494	1333.51501	-1922.96478	202.42922	1230.55214	-1900.87021	404.89666	1421.30875	-2024.01657	460.57549	1238.10814	-2039.73267	478.55812	1094.66682	-2036.11023	475.87891	959.04655	-2022.9158	387.38396	820.3212	-1942.19803	447.62764	798.79265	-1998.09616	438.00747	767.09679	-1935.43091	5.86774	1425.04837	-2015.7901	-54.94188	1230.8622	-2008.61282	-74.03851	1088.94279	-2019.25201	-78.99777	987.43942	-2017.35916	-3.35743	828.68317	-1916.1441	-63.18404	811.57814	-1976.2912	-68.06314	783.91426	-1917.13699	299.93702	987.58537	-1933.43185	65.55426	977.08183	-1953.28995	281.96234	1014.16466	-2132.7919	105.52344	1013.85254	-2131.12152	333.66528	724.04991	-2114.78058	330.32345	519.70383	-2067.63718	300.18097	334.19758	-2065.67276	302.56002	162.21064	-2151.12747	236.45657	84.85312	-2218.05115	273.42169	79.55381	-2022.66556	62.51127	708.93555	-2142.2261	28.72798	508.81912	-2075.99533	71.66523	283.87674	-2081.39114	25.82679	128.68273	-2169.27505	79.48235	76.05982	-2229.47861	48.64498	73.99924	-2028.32687
28	1.4	278.60804	1626.69968	-1879.27536	109.38847	1619.12628	-1887.9834	299.61481	1631.71356	-2029.77295	105.31519	1626.24969	-2040.96344	286.09249	1402.89932	-1955.34698	135.52701	1394.57855	-1947.17743	273.03944	1449.79828	-2103.78571	115.19444	1442.40158	-2095.7695	203.4487	1275.55458	-2147.67868	211.19652	1332.88879	-1913.69171	205.60522	1229.93454	-1891.7717	408.60657	1420.80032	-2013.9328	464.65034	1237.7755	-2031.07193	482.8875	1094.55795	-2029.29642	480.81432	958.78838	-2017.57782	392.11281	818.24242	-1939.62509	453.51158	798.09776	-1994.94888	442.98344	764.94698	-1932.73239	9.65998	1424.68887	-2007.01538	-52.2135	1231.26526	-2001.36185	-72.18111	1089.52126	-2012.62726	-78.35265	988.28217	-2012.061	-3.79765	826.6378	-1914.23035	-66.00386	812.46208	-1973.2077	-69.66209	783.00209	-1914.06845	303.35434	985.97031	-1925.73517	68.74249	975.62538	-1947.26669	285.00219	1014.53682	-2125.92285	108.69688	1014.26498	-2124.67194	336.65794	723.78593	-2110.64789	331.86317	518.89282	-2065.20752	300.72094	333.40099	-2064.6817	303.0006	161.94843	-2151.3562	236.94012	84.83746	-2219.0979	273.08447	80.02644	-2023.75259	65.36048	708.218	-2137.40158	30.24803	508.13416	-2071.5654	72.54819	282.90249	-2079.20853	26.25006	128.9751	-2169.10187	79.88897	76.07849	-2229.75861	48.387	74.45266	-2028.88458
29	1.433	282.29717	1625.33432	-1867.16049	113.04868	1617.00348	-1875.94482	303.30923	1631.13464	-2017.57706	109.04439	1624.84756	-2028.92654	290.14427	1401.78574	-1943.76282	139.5099	1393.65784	-1936.15891	277.50313	1449.25354	-2092.21024	119.50822	1442.62894	-2085.26108	207.89	1275.50255	-2137.37869	215.08091	1331.58798	-1902.82349	209.18066	1228.7413	-1881.39526	412.82806	1419.76074	-2002.01584	469.1996	1236.85585	-2020.70969	487.53502	1093.85963	-2020.3775	486.25381	957.95166	-2010.35934	397.50923	815.66551	-1935.86533	459.75887	796.85196	-1990.71747	448.38375	762.01843	-1929.30603	14.00061	1424.27734	-1996.39999	-48.99848	1231.78169	-1992.41898	-70.08224	1090.55016	-2005.93628	-77.13452	989.15497	-2007.00378	-5.37711	824.49707	-1911.45493	-67.92948	813.45871	-1971.09543	-71.69301	781.29578	-1912.63016	306.55458	983.67912	-1920.00259	72.29903	973.90663	-1940.40985	288.47269	1014.19685	-2118.76999	112.16245	1014.20212	-2117.52472	339.65107	723.33214	-2106.09406	333.84941	517.97665	-2062.51816	301.47604	332.79167	-2063.50769	303.48341	161.56532	-2151.08459	237.46267	84.93777	-2219.77112	272.76903	80.0256	-2024.28024	68.12723	706.81526	-2130.44525	31.72662	506.91307	-2064.09607	73.18116	281.22337	-2075.32776	26.54614	129.31428	-2168.61374	80.26948	76.4839	-2229.80927	48.16567	74.71345	-2029.49463
30	1.467	286.30821	1623.37952	-1852.95532	117.12976	1613.75	-1861.83701	307.2323	1630.05859	-2003.28537	113.09398	1622.35367	-2014.74152	294.73026	1399.71069	-1930.32333	143.95035	1392.04773	-1923.5379	282.53187	1448.48557	-2078.57162	124.41786	1442.3465	-2072.57187	212.80399	1275.50957	-2126.03043	219.38154	1329.29062	-1890.75806	215.06023	1225.24246	-1875.08881	417.5111	1417.89154	-1988.00461	473.92834	1235.01274	-2008.00232	491.81931	1092.09602	-2008.81302	491.83578	956.4341	-2001.18561	403.31486	812.1537	-1931.27289	467.31495	794.24118	-1984.26666	454.26941	758.21037	-1923.18832	18.76512	1423.5672	-1983.82248	-45.57023	1232.13181	-1982.55203	-67.1326	1091.06949	-1998.46146	-75.44706	989.92081	-2002.00241	-7.4822	821.53297	-1909.63715	-69.98558	813.71162	-1969.7435	-74.56941	778.71361	-1912.5087	310.75771	982.04018	-1912.54227	76.70812	972.4057	-1932.75009	292.4049	1012.88589	-2111.33072	115.96484	1013.0011	-2110.09567	342.20745	722.98912	-2100.70831	336.21727	516.94622	-2059.19708	302.5934	331.86699	-2061.79428	304.38873	161.13707	-2150.53787	238.1752	85.01541	-2220.29083	272.73781	80.16862	-2024.72656	71.02763	703.55202	-2120.09949	32.11972	504.31683	-2050.61066	72.50836	278.32973	-2070.9465	26.77965	130.01673	-2167.0723	81.02434	77.71507	-2229.02176	48.06298	74.16917	-2029.12277
31	1.5	290.05793	1620.25177	-1836.42365	120.99588	1609.3222	-1845.64133	311.44749	1628.40256	-1987.34055	117.10911	1618.76495	-1998.53653	299.65103	1396.33881	-1914.93164	148.42122	1389.09882	-1909.11041	288.1245	1447.46124	-2063.0484	130.15849	1441.47278	-2057.76123	218.01456	1275.21179	-2113.50784	223.86261	1325.29068	-1877.08023	219.49663	1221.12022	-1863.63297	422.48177	1415.09872	-1971.66916	478.51006	1232.1843	-1992.67593	496.00395	1089.41978	-1994.78806	497.03629	954.29825	-1989.98993	408.84705	808.34579	-1924.11346	474.32121	790.70847	-1975.49057	460.53665	754.50546	-1914.14581	23.46692	1422.33185	-1970.22064	-41.42748	1231.32729	-1970.81146	-64.22885	1091.06567	-1989.58862	-74.21532	990.48019	-1996.57928	-9.85875	817.76283	-1909.46594	-74.04167	814.26132	-1970.09094	-77.47541	774.8085	-1914.03091	315.33289	979.61044	-1902.52457	80.46166	969.98833	-1925.16083	296.47099	1011.29562	-2103.03787	119.7087	1010.61562	-2102.4617	344.7686	722.36603	-2094.66187	338.86204	515.6358	-2055.36179	303.70892	330.66803	-2059.9292	305.18173	160.54729	-2149.97467	238.91247	85.09409	-2221.09131	272.67859	80.09789	-2025.99442	73.37454	697.44873	-2104.7554	31.37104	500.64026	-2028.564	70.65894	275.19711	-2059.32785	27.2105	132.26236	-2164.02466	83.16971	81.50231	-2226.54831	46.82571	73.40735	-2027.6535
32	1.533	293.87991	1616.47446	-1817.65869	124.88376	1603.84659	-1827.02011	315.1161	1626.54388	-1968.35098	121.08147	1614.92325	-1979.51035	304.35246	1392.68967	-1898.14499	152.77726	1385.56763	-1893.42087	293.79269	1445.83771	-2045.97443	135.24812	1440.28397	-2041.83075	223.14173	1274.599	-2099.47586	227.78557	1320.9346	-1862.01569	223.05239	1216.69182	-1850.48157	427.3497	1411.49155	-1953.63541	483.35663	1228.54836	-1975.62698	500.0441	1085.70473	-1979.16534	501.54736	950.77164	-1976.2059	413.96095	804.26949	-1912.22672	479.27849	786.93886	-1963.91006	465.39467	749.74472	-1902.62756	28.21689	1420.3772	-1954.66141	-38.06806	1229.91676	-1959.24332	-61.92533	1090.62805	-1981.40152	-73.35064	990.71037	-1991.60065	-12.0705	813.9621	-1911.03378	-75.17478	813.25493	-1970.5542	-79.60211	771.21819	-1916.90063	318.09578	975.28587	-1893.74359	83.86091	967.48123	-1916.90536	300.06527	1010.21553	-2093.84491	122.72587	1007.53395	-2094.75403	347.82516	721.54175	-2087.85538	341.58249	514.13452	-2051.14731	304.18299	328.93421	-2056.73904	306.28355	159.82501	-2149.13406	240.00538	85.24745	-2221.77765	272.13554	80.07442	-2026.23505	73.36485	689.4088	-2083.20496	30.73757	497.38998	-1996.51352	70.43151	274.27212	-2041.65543	30.63589	139.39893	-2157.85736	89.23594	92.66297	-2221.41235	44.93464	73.25946	-2025.67963
33	1.567	297.15097	1612.50275	-1796.25854	128.48651	1598.10516	-1805.94055	318.35104	1625.55573	-1946.64749	124.51761	1612.00363	-1958.39828	307.4996	1388.82477	-1880.0029	156.24414	1382.57782	-1875.71045	299.19464	1444.48807	-2026.73157	140.02149	1439.64874	-2023.55423	227.80067	1274.66164	-2084.06784	230.8642	1317.20749	-1845.09247	225.36318	1212.53792	-1835.44434	431.8906	1407.85431	-1933.94577	487.87743	1224.60136	-1957.15317	503.9267	1081.76376	-1961.08734	505.24334	947.11182	-1959.54636	417.19841	800.63446	-1896.86737	482.11536	782.8421	-1948.90106	466.93668	744.54323	-1887.94113	32.58399	1417.81418	-1936.94107	-35.56835	1228.55026	-1947.57721	-59.80863	1090.13748	-1973.22083	-72.21069	990.97267	-1986.99631	-13.84834	810.46524	-1913.26172	-76.95251	812.79816	-1972.97073	-81.64237	768.16872	-1921.09726	319.9864	971.45653	-1882.36176	86.17931	966.26129	-1907.05597	303.10238	1009.23195	-2083.34778	125.20186	1004.98512	-2085.68848	350.66544	720.77034	-2080.15503	343.21285	512.85908	-2046.76163	304.9585	327.90577	-2054.4725	307.11626	159.52889	-2148.51807	240.94944	85.42841	-2222.36938	271.76378	79.98806	-2026.76712	72.53178	683.5347	-2057.58911	31.15819	497.31495	-1955.81894	72.60524	278.67136	-2014.64722	40.22042	154.88752	-2147.42508	103.61567	113.27026	-2209.28238	42.06324	74.54111	-2023.27454
34	1.6	299.69809	1607.7652	-1772.30988	131.2705	1592.18201	-1782.72339	321.09489	1623.78616	-1922.34924	127.52687	1608.98804	-1934.69452	309.65567	1384.74548	-1859.19861	159.38652	1379.54971	-1856.57913	304.03316	1443.36273	-2004.89777	144.62608	1439.28772	-2003.60825	232.47368	1275.19302	-2066.47247	232.89917	1313.19427	-1826.08368	226.5349	1208.46512	-1818.61603	435.40356	1404.7966	-1910.99625	491.11488	1221.72775	-1935.37079	507.17735	1078.66966	-1939.79141	507.6149	943.83331	-1939.01337	417.07741	798.33733	-1878.19199	482.90512	779.14902	-1928.87497	465.76004	741.24268	-1868.09036	36.3769	1416.39252	-1917.91061	-32.92062	1228.19992	-1934.36584	-57.00612	1090.45456	-1963.81531	-70.58591	992.65617	-1982.43179	-15.96618	808.45543	-1915.05402	-78.31819	813.61076	-1976.37985	-83.90788	766.63147	-1926.39191	322.25193	967.97638	-1869.72565	88.28025	965.74265	-1893.99231	304.99323	1008.09402	-2070.86014	126.88869	1003.35312	-2073.30444	351.47957	720.10132	-2072.12158	343.9006	511.57219	-2042.48276	305.48117	327.01801	-2052.47116	307.44181	159.4579	-2148.00735	241.27314	85.69219	-2222.55035	272.03091	79.93006	-2026.9487	71.62932	679.89777	-2028.21899	32.06863	501.05667	-1913.5733	77.92289	285.92892	-1982.20184	54.75423	172.83136	-2124.82132	122.06136	134.2378	-2184.15741	45.79486	81.81975	-2008.12057
